<svg width="70" height="17" viewBox="0 0 70 17" fill="none" xmlns="http://www.w3.org/2000/svg">
<circle cx="4" cy="4" r="4" fill="white"/>
<circle cx="4" cy="13" r="4" fill="white"/>
<circle cx="13" cy="4" r="4" fill="white"/>
<path d="M22.56 16V15.06L23.64 14.82C23.6533 14.34 23.66 13.82 23.66 13.26C23.66 12.7 23.66 12.2133 23.66 11.8V3.42L22.42 3.22V2.38L26.56 1.48L26.88 1.68L26.8 4.48V7.7C27.3333 7.07333 27.8467 6.64 28.34 6.4C28.8467 6.14667 29.3933 6.02 29.98 6.02C30.86 6.02 31.5667 6.30667 32.1 6.88C32.6333 7.45333 32.9 8.31333 32.9 9.46V11.8C32.9 12.24 32.9 12.74 32.9 13.3C32.9 13.8467 32.9067 14.3667 32.92 14.86L33.92 15.06V16H28.66V15.06L29.7 14.84C29.7133 14.3467 29.72 13.8267 29.72 13.28C29.72 12.72 29.72 12.2267 29.72 11.8V9.7C29.72 9.04667 29.64 8.59333 29.48 8.34C29.3333 8.08667 29.0533 7.96 28.64 7.96C28.3733 7.96 28.0867 8.04 27.78 8.2C27.4733 8.36 27.1667 8.58667 26.86 8.88V11.8C26.86 12.2133 26.86 12.7067 26.86 13.28C26.86 13.84 26.8667 14.3667 26.88 14.86L27.82 15.06V16H22.56ZM42.507 16.28C41.347 16.28 40.6137 15.8 40.307 14.84C39.8804 15.2933 39.467 15.6533 39.067 15.92C38.6804 16.1733 38.1404 16.3 37.447 16.3C36.6737 16.3 36.0404 16.08 35.547 15.64C35.067 15.2 34.827 14.5667 34.827 13.74C34.827 13.26 34.9337 12.8267 35.147 12.44C35.3604 12.0533 35.747 11.6933 36.307 11.36C36.867 11.0267 37.6604 10.7133 38.687 10.42C38.887 10.3533 39.1204 10.2867 39.387 10.22C39.6537 10.1533 39.927 10.0867 40.207 10.02V9.36C40.207 8.46667 40.0937 7.86 39.867 7.54C39.6537 7.22 39.227 7.06 38.587 7.06C38.4937 7.06 38.407 7.06 38.327 7.06C38.247 7.06 38.1537 7.06667 38.047 7.08L37.947 7.96C37.9337 8.61333 37.7804 9.08667 37.487 9.38C37.207 9.67333 36.8737 9.82 36.487 9.82C35.7537 9.82 35.307 9.48667 35.147 8.82C35.2004 7.99333 35.6204 7.32 36.407 6.8C37.1937 6.28 38.307 6.02 39.747 6.02C41.027 6.02 41.9404 6.31333 42.487 6.9C43.047 7.48667 43.327 8.45333 43.327 9.8V14.28C43.327 14.6667 43.4737 14.86 43.767 14.86C43.8737 14.86 43.9737 14.8333 44.067 14.78C44.1604 14.7133 44.2604 14.5933 44.367 14.42L44.907 14.78C44.667 15.3133 44.3537 15.7 43.967 15.94C43.5937 16.1667 43.107 16.28 42.507 16.28ZM37.787 13.22C37.787 13.7133 37.9004 14.08 38.127 14.32C38.367 14.56 38.6537 14.68 38.987 14.68C39.1337 14.68 39.287 14.6467 39.447 14.58C39.607 14.5133 39.8604 14.36 40.207 14.12V10.88C40.0337 10.9333 39.8604 10.9933 39.687 11.06C39.527 11.1133 39.387 11.1667 39.267 11.22C38.8137 11.4067 38.4537 11.6733 38.187 12.02C37.9204 12.3533 37.787 12.7533 37.787 13.22ZM45.432 16V15.06L46.532 14.84C46.5454 14.3333 46.552 13.8267 46.552 13.32C46.5654 12.8133 46.572 12.3067 46.572 11.8V7.7H45.272V6.52L46.612 6.36C46.7187 5.45333 46.892 4.72667 47.132 4.18C47.3854 3.62 47.7254 3.12 48.152 2.68C48.6454 2.18667 49.1987 1.83333 49.812 1.62C50.4387 1.39333 51.0387 1.28 51.612 1.28C52.172 1.28 52.6787 1.38667 53.132 1.6C53.5854 1.8 53.8787 2.16667 54.012 2.7C53.9987 3.07333 53.8654 3.39333 53.612 3.66C53.372 3.91333 53.0254 4.04 52.572 4.04C52.2387 4.04 51.9254 3.92667 51.632 3.7C51.3387 3.47333 51.052 3.11333 50.772 2.62L50.612 2.38C50.252 2.75333 50.0054 3.24667 49.872 3.86C49.7387 4.46 49.6854 5.28667 49.712 6.34H53.272L54.312 3.52H56.052L56.012 6.34H58.092V7.7H55.992V13.3C55.992 13.7667 56.0854 14.1133 56.272 14.34C56.472 14.5533 56.7187 14.66 57.012 14.66C57.3587 14.66 57.7254 14.5133 58.112 14.22L58.592 14.7C58.3387 15.2067 57.972 15.6 57.492 15.88C57.012 16.16 56.4054 16.3 55.672 16.3C54.7654 16.3 54.0587 16.0867 53.552 15.66C53.0454 15.22 52.792 14.5067 52.792 13.52C52.792 13.1733 52.792 12.8533 52.792 12.56C52.8054 12.2533 52.812 11.9067 52.812 11.52V7.7H49.752V11.8C49.752 12.2933 49.752 12.7867 49.752 13.28C49.752 13.76 49.7587 14.2467 49.772 14.74L51.312 15.06V16H45.432ZM66.7648 16.28C65.6048 16.28 64.8715 15.8 64.5648 14.84C64.1382 15.2933 63.7248 15.6533 63.3248 15.92C62.9382 16.1733 62.3982 16.3 61.7048 16.3C60.9315 16.3 60.2982 16.08 59.8048 15.64C59.3248 15.2 59.0848 14.5667 59.0848 13.74C59.0848 13.26 59.1915 12.8267 59.4048 12.44C59.6182 12.0533 60.0048 11.6933 60.5648 11.36C61.1248 11.0267 61.9182 10.7133 62.9448 10.42C63.1448 10.3533 63.3782 10.2867 63.6448 10.22C63.9115 10.1533 64.1848 10.0867 64.4648 10.02V9.36C64.4648 8.46667 64.3515 7.86 64.1248 7.54C63.9115 7.22 63.4848 7.06 62.8448 7.06C62.7515 7.06 62.6648 7.06 62.5848 7.06C62.5048 7.06 62.4115 7.06667 62.3048 7.08L62.2048 7.96C62.1915 8.61333 62.0382 9.08667 61.7448 9.38C61.4648 9.67333 61.1315 9.82 60.7448 9.82C60.0115 9.82 59.5648 9.48667 59.4048 8.82C59.4582 7.99333 59.8782 7.32 60.6648 6.8C61.4515 6.28 62.5648 6.02 64.0048 6.02C65.2848 6.02 66.1982 6.31333 66.7448 6.9C67.3048 7.48667 67.5848 8.45333 67.5848 9.8V14.28C67.5848 14.6667 67.7315 14.86 68.0248 14.86C68.1315 14.86 68.2315 14.8333 68.3248 14.78C68.4182 14.7133 68.5182 14.5933 68.6248 14.42L69.1648 14.78C68.9248 15.3133 68.6115 15.7 68.2248 15.94C67.8515 16.1667 67.3648 16.28 66.7648 16.28ZM62.0448 13.22C62.0448 13.7133 62.1582 14.08 62.3848 14.32C62.6248 14.56 62.9115 14.68 63.2448 14.68C63.3915 14.68 63.5448 14.6467 63.7048 14.58C63.8648 14.5133 64.1182 14.36 64.4648 14.12V10.88C64.2915 10.9333 64.1182 10.9933 63.9448 11.06C63.7848 11.1133 63.6448 11.1667 63.5248 11.22C63.0715 11.4067 62.7115 11.6733 62.4448 12.02C62.1782 12.3533 62.0448 12.7533 62.0448 13.22Z" fill="white"/>
</svg>
