<svg width="99" height="32" viewBox="0 0 99 32" fill="none"  xmlns="http://www.w3.org/2000/svg">
<path d="M18.8056 14.3252C18.8292 14.1473 18.8414 13.9695 18.8414 13.7926C18.8414 11.361 16.651 9.4097 14.2203 9.73985C13.512 8.47955 12.1627 7.6598 10.6643 7.6598C9.16583 7.6598 7.8166 8.47955 7.10826 9.73985C4.67249 9.4097 2.48715 11.361 2.48715 13.7926C2.48715 13.9695 2.49942 14.1473 2.52293 14.3252C1.26263 15.0345 0.442871 16.3838 0.442871 17.8812C0.442871 19.3786 1.26263 20.7279 2.52293 21.4372C2.49942 21.6151 2.48715 21.7929 2.48715 21.9698C2.48715 24.4015 4.67249 26.3476 7.10826 26.0226C7.8166 27.2829 9.16583 28.1026 10.6643 28.1026C12.1627 28.1026 13.512 27.2829 14.2203 26.0226C16.651 26.3476 18.8414 24.4015 18.8414 21.9698C18.8414 21.7929 18.8292 21.6151 18.8056 21.4372C20.0659 20.7279 20.8857 19.3786 20.8857 17.8812C20.8857 16.3838 20.0659 15.0345 18.8056 14.3252Z" fill="black"/>
<path d="M28.245 19.858V18.918L29.365 18.678C29.3783 18.0514 29.385 17.4647 29.385 16.918C29.3983 16.3847 29.405 15.8714 29.405 15.378V9.95803C29.405 9.41137 29.3983 8.99137 29.385 8.69803C29.385 8.39137 29.3716 8.03803 29.345 7.63803L28.105 7.45803V6.67803L32.025 5.33803L32.365 5.53803L32.445 6.65803C33.285 5.77803 34.2716 5.33803 35.405 5.33803C36.1383 5.33803 36.7983 5.53137 37.385 5.91803C37.9716 6.3047 38.4383 6.87803 38.785 7.63803C39.145 8.39803 39.325 9.33137 39.325 10.438C39.325 11.5047 39.125 12.4314 38.725 13.218C38.325 13.9914 37.7983 14.5847 37.145 14.998C36.505 15.4114 35.805 15.618 35.045 15.618C34.0183 15.618 33.1783 15.2714 32.525 14.578V15.358C32.525 15.8514 32.525 16.3647 32.525 16.898C32.5383 17.4314 32.5516 18.0047 32.565 18.618L33.845 18.918V19.858H28.245ZM33.945 7.07803C33.6916 7.07803 33.4516 7.13137 33.225 7.23803C33.0116 7.3447 32.7983 7.47803 32.585 7.63803V13.438C32.985 13.7714 33.4183 13.938 33.885 13.938C34.485 13.938 34.9716 13.658 35.345 13.098C35.7316 12.538 35.925 11.6647 35.925 10.478C35.925 9.29137 35.7383 8.43137 35.365 7.89803C35.005 7.35137 34.5316 7.07803 33.945 7.07803Z" fill="black"/>
<path d="M45.5482 6.37803C45.1749 6.37803 44.8282 6.61137 44.5082 7.07803C44.2016 7.53137 44.0282 8.37137 43.9882 9.59803H45.6882C46.1682 9.59803 46.4882 9.5047 46.6482 9.31804C46.8216 9.11803 46.9082 8.79137 46.9082 8.33803C46.9082 7.67137 46.7749 7.17803 46.5082 6.85803C46.2416 6.53803 45.9216 6.37803 45.5482 6.37803ZM45.5882 15.618C44.6149 15.618 43.7549 15.418 43.0082 15.018C42.2616 14.6047 41.6749 14.018 41.2482 13.258C40.8216 12.4847 40.6082 11.5647 40.6082 10.498C40.6082 9.37803 40.8549 8.43803 41.3482 7.67803C41.8549 6.9047 42.5016 6.3247 43.2882 5.93803C44.0749 5.53803 44.8949 5.33803 45.7482 5.33803C46.6282 5.33803 47.3749 5.5247 47.9882 5.89803C48.6149 6.27137 49.0882 6.77803 49.4082 7.41803C49.7282 8.0447 49.8882 8.7647 49.8882 9.57804C49.8882 9.9647 49.8482 10.318 49.7682 10.638H43.9882C44.0549 11.6914 44.3416 12.4714 44.8482 12.978C45.3682 13.4714 45.9749 13.718 46.6682 13.718C47.2149 13.718 47.6816 13.618 48.0682 13.418C48.4549 13.2047 48.7949 12.9447 49.0882 12.638L49.7882 13.278C49.3749 14.0647 48.8149 14.6514 48.1082 15.038C47.4016 15.4247 46.5616 15.618 45.5882 15.618Z" fill="black"/>
<path d="M50.8426 19.858V18.918L51.9626 18.678C51.9759 18.0514 51.9826 17.4647 51.9826 16.918C51.996 16.3847 52.0026 15.8714 52.0026 15.378V9.95803C52.0026 9.41137 51.996 8.99137 51.9826 8.69803C51.9826 8.39137 51.9693 8.03803 51.9426 7.63803L50.7026 7.45803V6.67803L54.6226 5.33803L54.9626 5.53803L55.0426 6.65803C55.8826 5.77803 56.8693 5.33803 58.0026 5.33803C58.736 5.33803 59.396 5.53137 59.9826 5.91803C60.5693 6.3047 61.036 6.87803 61.3826 7.63803C61.7426 8.39803 61.9226 9.33137 61.9226 10.438C61.9226 11.5047 61.7226 12.4314 61.3226 13.218C60.9226 13.9914 60.396 14.5847 59.7426 14.998C59.1026 15.4114 58.4026 15.618 57.6426 15.618C56.6159 15.618 55.776 15.2714 55.1226 14.578V15.358C55.1226 15.8514 55.1226 16.3647 55.1226 16.898C55.136 17.4314 55.1493 18.0047 55.1626 18.618L56.4426 18.918V19.858H50.8426ZM56.5426 7.07803C56.2893 7.07803 56.0493 7.13137 55.8226 7.23803C55.6093 7.3447 55.396 7.47803 55.1826 7.63803V13.438C55.5826 13.7714 56.016 13.938 56.4826 13.938C57.0826 13.938 57.5693 13.658 57.9426 13.098C58.3293 12.538 58.5226 11.6647 58.5226 10.478C58.5226 9.29137 58.3359 8.43137 57.9626 7.89803C57.6026 7.35137 57.1293 7.07803 56.5426 7.07803Z" fill="black"/>
<path d="M62.9506 15.318V14.378L64.0506 14.138C64.0639 13.6314 64.0706 13.1247 64.0706 12.618C64.0839 12.1114 64.0906 11.6114 64.0906 11.118V2.73803L62.8506 2.53803V1.69803L67.0506 0.798035L67.3706 0.998034L67.2906 3.79803V11.118C67.2906 11.6247 67.2906 12.1314 67.2906 12.638C67.3039 13.1447 67.3172 13.6514 67.3306 14.158L68.4306 14.378V15.318H62.9506Z" fill="black"/>
<path d="M76.4768 15.538L76.3568 13.858C75.9302 14.418 75.4435 14.8514 74.8968 15.158C74.3502 15.4647 73.7568 15.618 73.1168 15.618C72.2635 15.618 71.5768 15.3514 71.0568 14.818C70.5368 14.2714 70.2835 13.338 70.2968 12.018L70.3768 7.13803L69.2168 6.87803V6.03803L73.2968 5.45803L73.6168 5.67803L73.5168 8.49803V12.038C73.5168 12.6514 73.6102 13.078 73.7968 13.318C73.9968 13.558 74.2635 13.678 74.5968 13.678C74.8768 13.678 75.1635 13.5914 75.4568 13.418C75.7635 13.2447 76.0502 13.0314 76.3168 12.778L76.3968 7.11803L75.2968 6.87803V6.09803L79.2768 5.45803L79.5968 5.67803L79.5368 8.49803V14.178L80.5768 14.398V15.338L76.4768 15.538Z" fill="black"/>
<path d="M81.5453 15.318V14.378L82.6253 14.138C82.6386 13.658 82.6453 13.138 82.6453 12.578C82.6453 12.018 82.6453 11.5314 82.6453 11.118V9.95803C82.6453 9.41137 82.6386 8.99137 82.6253 8.69803C82.6253 8.39137 82.6119 8.03803 82.5853 7.63803L81.3653 7.45803V6.67803L85.3053 5.33803L85.6653 5.55803L85.7853 6.99803C86.2519 6.45137 86.7386 6.03803 87.2453 5.75803C87.7653 5.47803 88.3186 5.33803 88.9053 5.33803C90.2786 5.33803 91.1653 5.93137 91.5653 7.11803C92.1119 6.45137 92.6386 5.99137 93.1453 5.73803C93.6653 5.47137 94.2119 5.33803 94.7853 5.33803C95.7986 5.33803 96.5386 5.63137 97.0053 6.21803C97.4719 6.8047 97.7053 7.69137 97.7053 8.87803V11.118C97.7053 11.5447 97.7053 12.038 97.7053 12.598C97.7053 13.158 97.7119 13.678 97.7253 14.158L98.7253 14.378V15.318H93.5653V14.378L94.5453 14.138C94.5586 13.658 94.5653 13.1447 94.5653 12.598C94.5653 12.038 94.5653 11.5447 94.5653 11.118V9.17803C94.5653 8.43137 94.4786 7.93137 94.3053 7.67803C94.1319 7.41137 93.8386 7.27803 93.4253 7.27803C92.8653 7.27803 92.3053 7.51803 91.7453 7.99803C91.7586 8.11803 91.7653 8.2447 91.7653 8.37803C91.7786 8.49803 91.7853 8.63137 91.7853 8.77803V11.118C91.7853 11.558 91.7853 12.058 91.7853 12.618C91.7853 13.1647 91.7919 13.6847 91.8053 14.178L92.7453 14.378V15.318H87.5853V14.378L88.6253 14.138C88.6386 13.658 88.6453 13.1447 88.6453 12.598C88.6453 12.038 88.6453 11.5447 88.6453 11.118V9.19803C88.6453 8.49137 88.5586 7.99803 88.3853 7.71803C88.2253 7.4247 87.9253 7.27803 87.4853 7.27803C87.2053 7.27803 86.9253 7.3447 86.6453 7.47803C86.3653 7.61137 86.0986 7.7847 85.8453 7.99803V11.118C85.8453 11.5314 85.8453 12.0247 85.8453 12.598C85.8453 13.158 85.8519 13.6847 85.8653 14.178L86.8053 14.378V15.318H81.5453Z" fill="black"/>
<path d="M39.745 31.618C38.4783 31.618 37.3183 31.3114 36.265 30.698L36.325 28.258H37.925L38.265 30.238C38.505 30.3314 38.745 30.4047 38.985 30.458C39.225 30.498 39.485 30.518 39.765 30.518C40.3383 30.518 40.7783 30.4247 41.085 30.238C41.3916 30.038 41.545 29.738 41.545 29.338C41.545 29.0314 41.4316 28.7647 41.205 28.538C40.9783 28.3114 40.5316 28.1047 39.865 27.918L38.785 27.598C38.0116 27.3714 37.4116 27.0047 36.985 26.498C36.5716 25.9914 36.365 25.3647 36.365 24.618C36.365 23.698 36.725 22.9247 37.445 22.298C38.165 21.658 39.1983 21.338 40.545 21.338C41.1316 21.338 41.6716 21.4114 42.165 21.558C42.6716 21.6914 43.185 21.8914 43.705 22.158L43.565 24.338H41.965L41.565 22.618C41.285 22.5114 40.9183 22.458 40.465 22.458C40.0116 22.458 39.645 22.5514 39.365 22.738C39.0983 22.9247 38.965 23.2047 38.965 23.578C38.965 23.8447 39.0716 24.0847 39.285 24.298C39.4983 24.498 39.9516 24.7047 40.645 24.918L41.625 25.198C42.5716 25.478 43.2516 25.878 43.665 26.398C44.0783 26.918 44.285 27.5514 44.285 28.298C44.285 29.3514 43.8783 30.1714 43.065 30.758C42.265 31.3314 41.1583 31.618 39.745 31.618Z" fill="black"/>
<path d="M49.1265 31.618C48.2332 31.618 47.5332 31.4047 47.0265 30.978C46.5199 30.538 46.2665 29.8247 46.2665 28.838C46.2665 28.4914 46.2665 28.1714 46.2665 27.878C46.2799 27.5714 46.2865 27.2247 46.2865 26.838V23.018H44.9865V21.838L46.4665 21.638L47.4665 18.838H49.5065L49.4665 21.658H51.5665V23.018H49.4665V28.618C49.4665 29.0847 49.5599 29.4314 49.7465 29.658C49.9465 29.8714 50.1932 29.978 50.4865 29.978C50.8332 29.978 51.1932 29.8314 51.5665 29.538L52.0665 30.018C51.7999 30.5247 51.4265 30.918 50.9465 31.198C50.4799 31.478 49.8732 31.618 49.1265 31.618Z" fill="black"/>
<path d="M59.4378 31.538L59.3178 29.858C58.8911 30.418 58.4044 30.8514 57.8578 31.158C57.3111 31.4647 56.7178 31.618 56.0778 31.618C55.2244 31.618 54.5378 31.3514 54.0178 30.818C53.4978 30.2714 53.2444 29.338 53.2578 28.018L53.3378 23.138L52.1778 22.878V22.038L56.2578 21.458L56.5778 21.678L56.4778 24.498V28.038C56.4778 28.6514 56.5711 29.078 56.7578 29.318C56.9578 29.558 57.2244 29.678 57.5578 29.678C57.8378 29.678 58.1244 29.5914 58.4178 29.418C58.7244 29.2447 59.0111 29.0314 59.2778 28.778L59.3578 23.118L58.2578 22.878V22.098L62.2378 21.458L62.5578 21.678L62.4978 24.498V30.178L63.5378 30.398V31.338L59.4378 31.538Z" fill="black"/>
<path d="M67.8476 26.538C67.8476 27.6314 68.0409 28.4647 68.4276 29.038C68.8143 29.598 69.3143 29.878 69.9276 29.878C70.3809 29.878 70.7943 29.7247 71.1676 29.418V23.458C70.8076 23.178 70.4143 23.038 69.9876 23.038C69.3743 23.038 68.8609 23.3247 68.4476 23.898C68.0476 24.4714 67.8476 25.3514 67.8476 26.538ZM71.4276 31.538L71.2676 30.398C70.4943 31.2114 69.5543 31.618 68.4476 31.618C67.7009 31.618 67.021 31.4247 66.4076 31.038C65.8076 30.6514 65.3343 30.0847 64.9876 29.338C64.641 28.578 64.4676 27.658 64.4676 26.578C64.4676 25.4847 64.6743 24.5514 65.0876 23.778C65.5143 22.9914 66.0609 22.3914 66.7276 21.978C67.4076 21.5514 68.1209 21.338 68.8676 21.338C69.3876 21.338 69.8409 21.4314 70.2276 21.618C70.6143 21.7914 70.9676 22.0514 71.2876 22.398V18.738L69.8876 18.538V17.698L74.1076 16.798L74.4276 16.998L74.3476 19.798V30.178L75.3276 30.378V31.318L71.4276 31.538Z" fill="black"/>
<path d="M76.3626 31.318V30.378L77.4426 30.138C77.456 29.658 77.4626 29.138 77.4626 28.578C77.4626 28.018 77.4626 27.5314 77.4626 27.118V26.158C77.4626 25.6114 77.456 25.158 77.4426 24.798C77.4426 24.4247 77.4293 24.038 77.4026 23.638L76.1626 23.458V22.678L80.3626 21.338L80.7026 21.558L80.6426 24.458V27.118C80.6426 27.5314 80.6426 28.0247 80.6426 28.598C80.6426 29.158 80.6493 29.6847 80.6626 30.178L81.6626 30.378V31.318H76.3626ZM79.0226 19.858C78.5559 19.858 78.1559 19.7114 77.8226 19.418C77.4893 19.1114 77.3226 18.7314 77.3226 18.278C77.3226 17.8114 77.4893 17.4314 77.8226 17.138C78.1559 16.8314 78.5559 16.678 79.0226 16.678C79.4893 16.678 79.8893 16.8314 80.2226 17.138C80.556 17.4314 80.7226 17.8114 80.7226 18.278C80.7226 18.7314 80.556 19.1114 80.2226 19.418C79.8893 19.7114 79.4893 19.858 79.0226 19.858Z" fill="black"/>
<path d="M87.7507 31.618C86.7107 31.618 85.8107 31.4047 85.0507 30.978C84.2907 30.538 83.7041 29.9314 83.2907 29.158C82.8774 28.3714 82.6707 27.4647 82.6707 26.438C82.6707 25.4114 82.8907 24.518 83.3307 23.758C83.7841 22.998 84.3974 22.4047 85.1707 21.978C85.9441 21.5514 86.8041 21.338 87.7507 21.338C88.6974 21.338 89.5507 21.5447 90.3107 21.958C91.0841 22.3714 91.6974 22.9647 92.1507 23.738C92.6041 24.498 92.8307 25.398 92.8307 26.438C92.8307 27.478 92.6241 28.3847 92.2107 29.158C91.7974 29.9314 91.2107 30.538 90.4507 30.978C89.6907 31.4047 88.7907 31.618 87.7507 31.618ZM87.7507 30.578C88.3107 30.578 88.7307 30.2514 89.0107 29.598C89.2907 28.9447 89.4307 27.9114 89.4307 26.498C89.4307 25.0714 89.2907 24.0314 89.0107 23.378C88.7307 22.7247 88.3107 22.398 87.7507 22.398C87.1774 22.398 86.7507 22.7247 86.4707 23.378C86.1907 24.0314 86.0507 25.0714 86.0507 26.498C86.0507 27.9114 86.1907 28.9447 86.4707 29.598C86.7507 30.2514 87.1774 30.578 87.7507 30.578Z" fill="black"/>
</svg>
