<svg width="24" height="24" viewBox="0 0 24 24" fill="none" xmlns="http://www.w3.org/2000/svg">
<path d="M19.965 8.521C19.988 8.347 20 8.173 20 8C20 5.621 17.857 3.712 15.479 4.035C14.786 2.802 13.466 2 12 2C10.534 2 9.214 2.802 8.521 4.035C6.138 3.712 4 5.621 4 8C4 8.173 4.012 8.347 4.035 8.521C2.802 9.215 2 10.535 2 12C2 13.465 2.802 14.785 4.035 15.479C4.012 15.653 4 15.827 4 16C4 18.379 6.138 20.283 8.521 19.965C9.214 21.198 10.534 22 12 22C13.466 22 14.786 21.198 15.479 19.965C17.857 20.283 20 18.379 20 16C20 15.827 19.988 15.653 19.965 15.479C21.198 14.785 22 13.465 22 12C22 10.535 21.198 9.215 19.965 8.521Z" fill="black"/>
</svg>
